<?xml version="1.0" encoding="UTF-8"?>
<svg viewBox="0 0 375 375" xmlns="http://www.w3.org/2000/svg">
 <g transform="matrix(.23738 0 0 -.23738 65.485 354.26)">
  <path d="m967 288h36c0-105.33-17-182-51-230s-77-72-129-72c-42 0-82.333 15.667-121 47s-73.333 116.33-104 255l-86 388-298-676h-189l428 922c-22.667 119.33-50 207.67-82 265s-71.667 86-119 86c-38 0-71-14.333-99-43s-44-73.667-48-135h-36c2 98 21.667 176.33 59 235s84 88.333 140 89c36 0 70-14.667 102-44s60-80 84-152 61-220.67 111-446l71-317c28.667-131.33 58.667-219 90-263s69.333-66.333 114-67c74.667 0 117 52.667 127 158z" fill="currentColor"/>
 </g>
</svg>
